<svg xmlns="http://www.w3.org/2000/svg" viewBox="0 0 83.21 37.02"><g fill="#303030" class="logo-primary"><path d="M78.69 36.93h4.52L77 28.06l4.67-5.92h-4.5L73 27.36v-11h-2A1.68 1.68 0 0 0 69.33 18v18.93H73v-3.8l1.58-2ZM59.85 36.93V23.81a1.68 1.68 0 0 1 1.68-1.68h1.86v3.6a5.07 5.07 0 0 1 4.7-3.8l.67.06v3.62q-.44 0-.87-.06a4.19 4.19 0 0 0-4 3.11 8.15 8.15 0 0 0-.32 2.41v5.86ZM46.12 28.86a4.51 4.51 0 0 0 1.37 3.22 4.45 4.45 0 0 0 3.16 1.28H51A4.44 4.44 0 0 0 54.19 32a4.5 4.5 0 0 0 1.29-3.16h3.64A8.19 8.19 0 0 1 51 37h-.33a8.16 8.16 0 0 1-8.16-8.14ZM38.32 22.13l-2.53 8.52-2.53-8.52h-3.92l-2.53 8.52-2.53-8.52h-1.7A1.62 1.62 0 0 0 21 23.75a1.49 1.49 0 0 0 .07.47l3.88 12.71h3.75l2.6-8.51 2.6 8.51h3.78l4.53-14.79ZM46.12 20.16a4.51 4.51 0 0 1 1.37-3.22 4.45 4.45 0 0 1 3.16-1.28H51A4.44 4.44 0 0 1 54.19 17a4.5 4.5 0 0 1 1.29 3.16h3.64A8.19 8.19 0 0 0 51 12h-.32a8.18 8.18 0 0 0-8.17 8.13ZM37.71 0h2v15.64c0 1.53.47 2 1.51 2h.55v3.22a7.46 7.46 0 0 1-1.16.09 5.34 5.34 0 0 1-3-.76c-1-.61-1.53-2-1.53-4V1.68A1.68 1.68 0 0 1 37.71 0ZM31.06 0h2v15.64c0 1.53.47 2 1.51 2h.55v3.22a7.46 7.46 0 0 1-1.16.09 5.31 5.31 0 0 1-3-.76c-1-.61-1.54-2-1.54-4V1.68A1.68 1.68 0 0 1 31.06 0ZM16.66 7.63a7.24 7.24 0 0 1 5.42-2.17 6 6 0 0 1 4.82 2 7.3 7.3 0 0 1 1.74 5l-.09 1.42H18.34a4.23 4.23 0 0 0 4.44 3.92 7.14 7.14 0 0 0 3.74-1.22l.53-.41 1.42 2.64a4.4 4.4 0 0 1-1 .76A9.29 9.29 0 0 1 22.52 21a7.83 7.83 0 0 1-5.77-2.23 7.67 7.67 0 0 1-2.18-5.52 7.67 7.67 0 0 1 2.09-5.62Zm8.27 3.74A2.87 2.87 0 0 0 22.3 8.3H22a3.42 3.42 0 0 0-3.54 3.07ZM0 20.6V1.68A1.68 1.68 0 0 1 1.68 0h2v7.14l-.05 1.24h.06a5.68 5.68 0 0 1 5.1-2.93c3.43 0 5.14 1.89 5.14 5.63v9.52h-3.65v-8.76c0-2-.58-3-2.35-3a4.22 4.22 0 0 0-4 3.07 7.31 7.31 0 0 0-.23 1.92v6.77Z"/></g></svg>